<svg width="1200" height="720" viewBox="0 0 1200 720" fill="none" xmlns="http://www.w3.org/2000/svg">
  <rect width="1200" height="720" rx="40" fill="#0A1421"/>
  <rect x="36" y="36" width="1128" height="648" rx="30" fill="url(#bg)"/>
  <rect x="96" y="96" width="332" height="528" rx="28" fill="#102037"/>
  <rect x="462" y="96" width="642" height="528" rx="28" fill="#0F1C31"/>
  <rect x="136" y="140" width="252" height="340" rx="20" fill="#F4F7FB"/>
  <rect x="176" y="176" width="110" height="16" rx="8" fill="#D4DDE9"/>
  <rect x="176" y="210" width="172" height="14" rx="7" fill="#E3EAF2"/>
  <rect x="176" y="238" width="160" height="14" rx="7" fill="#E3EAF2"/>
  <rect x="176" y="286" width="164" height="104" rx="18" fill="#E9F4FF"/>
  <path d="M244 318h28l10-20 16 48 14-28h32" stroke="#4F8CF7" stroke-width="8" stroke-linecap="round" stroke-linejoin="round"/>
  <rect x="176" y="520" width="132" height="16" rx="8" fill="#C8D4E2"/>
  <rect x="512" y="140" width="542" height="76" rx="22" fill="#122744"/>
  <text x="546" y="188" fill="#EEF5FF" font-family="Arial, sans-serif" font-size="34" font-weight="700">Medical Report Analyzer</text>
  <rect x="512" y="254" width="248" height="138" rx="24" fill="#152B4A"/>
  <rect x="790" y="254" width="264" height="138" rx="24" fill="#152B4A"/>
  <rect x="512" y="422" width="542" height="154" rx="24" fill="#152B4A"/>
  <text x="548" y="302" fill="#CFE1FF" font-family="Arial, sans-serif" font-size="22" font-weight="700">Key Findings</text>
  <text x="548" y="344" fill="#8EA7C8" font-family="Arial, sans-serif" font-size="18">OCR extraction complete</text>
  <text x="826" y="302" fill="#CFE1FF" font-family="Arial, sans-serif" font-size="22" font-weight="700">Risk Summary</text>
  <text x="826" y="350" fill="#8EA7C8" font-family="Arial, sans-serif" font-size="42" font-weight="700">Clear</text>
  <text x="548" y="470" fill="#CFE1FF" font-family="Arial, sans-serif" font-size="24" font-weight="700">Simplified patient-friendly summary</text>
  <rect x="548" y="500" width="430" height="14" rx="7" fill="#304D75"/>
  <rect x="548" y="528" width="468" height="14" rx="7" fill="#304D75"/>
  <rect x="548" y="556" width="392" height="14" rx="7" fill="#304D75"/>
  <defs>
    <linearGradient id="bg" x1="36" y1="36" x2="1164" y2="684" gradientUnits="userSpaceOnUse">
      <stop stop-color="#0D1B2B"/>
      <stop offset="1" stop-color="#08121E"/>
    </linearGradient>
  </defs>
</svg>
